<?xml version="1.0" standalone="no"?>
<!DOCTYPE svg PUBLIC "-//W3C//DTD SVG 20010904//EN"
 "http://www.w3.org/TR/2001/REC-SVG-20010904/DTD/svg10.dtd">
<svg version="1.0" xmlns="http://www.w3.org/2000/svg"
 width="241.000000pt" height="241.000000pt" viewBox="0 0 241.000000 241.000000"
 preserveAspectRatio="xMidYMid meet">
<metadata>
Created by potrace 1.11, written by Peter Selinger 2001-2013
</metadata>
<g transform="translate(0.000000,241.000000) scale(0.100000,-0.100000)"
fill="#000000" stroke="none">
<path d="M1183 2400 c-271 -38 -542 -206 -693 -429 -107 -159 -157 -314 -170
-526 -9 -146 -22 -202 -75 -307 -15 -29 -37 -67 -50 -84 -64 -84 -38 -131 88
-158 31 -7 34 -26 12 -60 -14 -21 -14 -25 -1 -39 9 -8 21 -17 27 -19 9 -3 8
-10 -2 -27 -13 -20 -12 -24 9 -41 12 -10 27 -20 34 -22 8 -3 9 -23 1 -78 -12
-88 -3 -134 30 -168 35 -35 96 -43 192 -26 147 25 253 16 301 -28 38 -34 94
-205 109 -330 l7 -58 60 0 60 0 -7 98 c-9 118 -36 281 -65 390 l-22 81 -78 39
c-340 173 -538 536 -490 902 48 367 287 648 645 756 80 24 107 27 240 28 161
1 211 -8 343 -61 157 -62 323 -196 408 -328 21 -33 39 -62 41 -64 4 -7 54 30
59 44 16 42 -198 282 -322 361 -154 98 -329 153 -514 159 -63 2 -143 0 -177
-5z"/>
<path d="M1264 2146 c-11 -8 -30 -12 -46 -9 -33 7 -85 -10 -128 -42 -19 -14
-44 -25 -57 -25 -12 0 -37 -13 -55 -29 -18 -16 -47 -32 -64 -35 -17 -4 -42
-19 -55 -33 -15 -16 -18 -24 -9 -21 8 2 105 29 215 58 163 44 204 58 221 78
14 18 27 24 42 20 28 -8 64 28 42 42 -23 14 -84 12 -106 -4z"/>
<path d="M1438 2150 c-46 -14 -82 -48 -82 -78 l0 -27 205 -21 c112 -12 205
-21 207 -19 1 1 -82 28 -184 61 -102 32 -181 60 -175 62 5 2 101 -26 212 -62
111 -36 204 -64 206 -62 10 9 -72 66 -109 76 -24 6 -54 18 -68 26 -97 54 -145
64 -212 44z"/>
<path d="M1073 2001 c-111 -31 -204 -59 -207 -62 -9 -8 215 -113 244 -113 21
-1 39 18 103 108 43 60 75 112 70 116 -4 4 -99 -18 -210 -49z"/>
<path d="M1224 1931 c-41 -58 -74 -110 -74 -117 0 -11 296 -91 305 -82 3 2
-23 72 -56 154 -50 122 -65 150 -81 150 -14 0 -43 -32 -94 -105z"/>
<path d="M1413 1878 c34 -83 67 -153 72 -155 6 -2 84 57 175 129 l164 133
-200 22 c-109 12 -216 22 -236 22 l-37 1 62 -152z"/>
<path d="M1740 1904 c-208 -165 -242 -196 -232 -206 8 -8 440 17 450 27 3 2
-114 244 -122 252 -1 1 -44 -32 -96 -73z"/>
<path d="M1912 1855 c61 -122 63 -125 66 -88 5 55 -14 109 -55 154 -74 81 -76
66 -11 -66z"/>
<path d="M793 1927 c-24 -13 -65 -64 -90 -111 l-15 -29 143 7 c79 3 169 9 199
13 l54 6 -124 63 c-69 35 -129 63 -135 63 -5 0 -20 -5 -32 -12z"/>
<path d="M882 1787 c-179 -10 -182 -10 -176 -31 23 -75 78 -205 89 -210 10 -3
254 171 298 213 11 10 -2 41 -17 39 -6 -1 -93 -6 -194 -11z"/>
<path d="M1140 1763 c-7 -16 -15 -59 -18 -97 -5 -69 -5 -69 19 -63 13 4 27 7
32 7 12 0 8 26 -13 76 -11 26 -19 52 -17 57 2 6 14 -18 27 -54 13 -35 25 -66
26 -67 1 -2 19 1 39 8 l37 12 -63 67 -64 66 65 -62 c38 -36 74 -63 85 -62 34
1 148 43 152 56 3 7 -44 22 -129 42 -73 18 -140 34 -149 37 -10 3 -20 -6 -29
-23z"/>
<path d="M659 1749 c-6 -12 -8 -30 -5 -41 2 -11 -2 -27 -10 -35 -8 -8 -14 -28
-14 -45 0 -20 -9 -39 -26 -55 -24 -22 -26 -29 -20 -76 4 -29 7 -63 6 -77 0
-14 -2 -42 -2 -62 -3 -72 15 -65 92 33 97 123 99 134 48 271 -22 59 -44 108
-49 108 -4 0 -13 -9 -20 -21z"/>
<path d="M970 1650 c-80 -60 -146 -114 -148 -120 -7 -19 52 -10 167 25 62 19
115 35 117 35 1 0 4 38 6 85 2 47 3 85 2 85 0 0 -65 -49 -144 -110z"/>
<path d="M1745 1694 c-82 -7 -169 -13 -192 -13 -28 -1 -43 -6 -43 -14 0 -11
68 -73 181 -165 l28 -22 -9 29 c-8 28 -8 29 43 34 79 10 154 51 188 105 16 25
29 50 29 54 0 10 -33 9 -225 -8z"/>
<path d="M1361 1658 l-63 -20 74 -75 74 -74 57 3 57 3 -30 63 c-16 35 -30 69
-29 75 0 7 18 -25 39 -70 l39 -83 55 0 c31 0 56 2 56 4 0 2 -41 39 -92 82 -66
56 -98 78 -114 76 -15 -2 -28 4 -36 17 -7 12 -15 21 -18 20 -3 -1 -34 -10 -69
-21z"/>
<path d="M1233 1619 l-32 -9 17 -45 c9 -25 22 -45 28 -45 7 0 14 -4 16 -8 2
-5 39 -12 83 -16 l80 -6 -70 70 c-38 38 -74 70 -80 69 -5 0 -24 -5 -42 -10z"/>
<path d="M1143 1593 c-19 -4 -23 -11 -23 -42 0 -37 1 -39 42 -45 54 -9 65 3
47 51 -15 38 -26 44 -66 36z"/>
<path d="M1006 1550 c-89 -27 -89 -27 -50 -33 21 -4 65 -7 97 -7 l57 0 0 35
c0 19 -3 34 -7 34 -5 -1 -48 -14 -97 -29z"/>
<path d="M838 1497 c-15 -8 -30 -12 -33 -9 -4 4 -4 -4 -1 -18 4 -14 31 -133
61 -265 67 -290 62 -272 84 -278 16 -4 26 15 64 120 l46 125 -120 150 c-67 82
-119 151 -117 153 2 2 57 -63 123 -145 66 -82 122 -150 125 -150 22 0 28 29
32 168 l6 152 -63 0 c-34 0 -89 3 -121 6 -42 4 -67 1 -86 -9z"/>
<path d="M1116 1408 c-3 -50 -6 -122 -6 -160 l0 -69 88 6 c48 3 101 8 118 11
l31 4 -51 135 c-28 74 -56 135 -63 135 -6 0 -13 4 -15 8 -1 5 -24 12 -49 15
l-46 6 -7 -91z"/>
<path d="M696 1395 c-43 -55 -75 -104 -72 -112 13 -33 279 -374 287 -366 7 7
-109 510 -129 557 -7 16 -20 5 -86 -79z"/>
<path d="M1264 1477 c-5 -14 78 -248 96 -270 4 -4 66 6 138 23 73 18 137 30
143 28 6 -2 -44 -17 -112 -33 -97 -23 -116 -30 -89 -33 86 -9 238 45 208 73
-7 7 -95 57 -195 111 -101 53 -181 99 -179 101 2 3 77 -35 166 -82 88 -48 163
-85 165 -83 3 3 -33 41 -79 86 -71 70 -89 82 -117 82 -19 0 -58 3 -86 6 -43 6
-54 4 -59 -9z"/>
<path d="M1530 1405 c118 -118 126 -120 81 -23 -40 87 -52 96 -116 97 l-40 1
75 -75z"/>
<path d="M1625 1374 c25 -53 45 -99 45 -103 0 -3 10 9 22 27 14 23 22 56 26
103 l5 69 -71 0 -71 0 44 -96z"/>
<path d="M603 1248 c18 -105 26 -133 41 -143 9 -7 16 -17 16 -22 0 -17 45 -51
78 -58 27 -6 32 -11 32 -36 0 -72 42 -120 120 -138 39 -9 41 -8 26 8 -9 10
-16 21 -16 26 0 11 -289 395 -297 395 -3 0 -3 -15 0 -32z"/>
<path d="M1305 1183 c-22 -1 -73 -5 -112 -9 -40 -3 -73 -9 -73 -13 0 -11 220
-102 230 -96 5 3 14 29 21 57 7 29 14 47 16 41 3 -7 -1 -29 -7 -49 -7 -19 -10
-38 -7 -40 10 -10 29 67 23 92 -5 17 -13 24 -29 22 -12 -1 -40 -3 -62 -5z"/>
<path d="M1048 1109 c-28 -64 -29 -85 -3 -36 15 27 24 54 22 60 -2 7 -11 -4
-19 -24z"/>
<path d="M1120 1135 c0 -5 58 -251 71 -298 10 -37 10 -37 37 -23 63 33 121
127 122 197 0 36 -1 37 -67 64 -141 56 -163 65 -163 60z"/>
<path d="M1032 1018 c-29 -62 -52 -121 -52 -131 0 -10 -5 -27 -10 -37 -8 -16
-6 -22 14 -35 39 -26 88 -36 141 -29 l50 7 -105 23 c-58 12 -94 22 -80 23 14
0 54 -6 90 -14 118 -26 112 -39 67 145 -24 98 -44 160 -51 160 -7 0 -36 -51
-64 -112z"/>
</g>
</svg>
